<!-- <?xml version="1.0" encoding="UTF-8" standalone="no"?> -->
<svg width="512" height="512" viewBox="0 0 512 512" fill="none" xmlns="http://www.w3.org/2000/svg">
<rect width="512" height="512" fill="#05080C"/>
<path d="M286.314 255.55C286.314 271.45 283.664 286.05 278.364 299.35C273.064 312.65 265.614 324.1 256.014 333.7C246.414 343.3 234.864 350.75 221.364 356.05C207.864 361.35 192.864 364 176.364 364H93.7145V147.1H176.364C192.864 147.1 207.864 149.8 221.364 155.2C234.864 160.5 246.414 167.95 256.014 177.55C265.614 187.05 273.064 198.45 278.364 211.75C283.664 225.05 286.314 239.65 286.314 255.55ZM244.914 255.55C244.914 243.65 243.314 233 240.114 223.6C237.014 214.1 232.464 206.1 226.464 199.6C220.564 193 213.364 187.95 204.864 184.45C196.464 180.95 186.964 179.2 176.364 179.2H134.214V331.9H176.364C186.964 331.9 196.464 330.15 204.864 326.65C213.364 323.15 220.564 318.15 226.464 311.65C232.464 305.05 237.014 297.05 240.114 287.65C243.314 278.15 244.914 267.45 244.914 255.55ZM416.437 186.55C415.237 188.65 413.937 190.2 412.537 191.2C411.237 192.1 409.587 192.55 407.587 192.55C405.487 192.55 403.187 191.8 400.687 190.3C398.287 188.7 395.387 186.95 391.987 185.05C388.587 183.15 384.587 181.45 379.987 179.95C375.487 178.35 370.137 177.55 363.937 177.55C358.337 177.55 353.437 178.25 349.237 179.65C345.037 180.95 341.487 182.8 338.587 185.2C335.787 187.6 333.687 190.5 332.287 193.9C330.887 197.2 330.187 200.85 330.187 204.85C330.187 209.95 331.587 214.2 334.387 217.6C337.287 221 341.087 223.9 345.787 226.3C350.487 228.7 355.837 230.85 361.837 232.75C367.837 234.65 373.987 236.7 380.287 238.9C386.587 241 392.737 243.5 398.737 246.4C404.737 249.2 410.087 252.8 414.787 257.2C419.487 261.5 423.237 266.8 426.037 273.1C428.937 279.4 430.387 287.05 430.387 296.05C430.387 305.85 428.687 315.05 425.287 323.65C421.987 332.15 417.087 339.6 410.587 346C404.187 352.3 396.337 357.3 387.037 361C377.737 364.6 367.087 366.4 355.087 366.4C348.187 366.4 341.387 365.7 334.687 364.3C327.987 363 321.537 361.1 315.337 358.6C309.237 356.1 303.487 353.1 298.087 349.6C292.687 346.1 287.887 342.2 283.687 337.9L295.537 318.55C296.537 317.15 297.837 316 299.437 315.1C301.037 314.1 302.737 313.6 304.537 313.6C307.037 313.6 309.737 314.65 312.637 316.75C315.537 318.75 318.987 321 322.987 323.5C326.987 326 331.637 328.3 336.937 330.4C342.337 332.4 348.787 333.4 356.287 333.4C367.787 333.4 376.687 330.7 382.987 325.3C389.287 319.8 392.437 311.95 392.437 301.75C392.437 296.05 390.987 291.4 388.087 287.8C385.287 284.2 381.537 281.2 376.837 278.8C372.137 276.3 366.787 274.2 360.787 272.5C354.787 270.8 348.687 268.95 342.487 266.95C336.287 264.95 330.187 262.55 324.187 259.75C318.187 256.95 312.837 253.3 308.137 248.8C303.437 244.3 299.637 238.7 296.737 232C293.937 225.2 292.537 216.85 292.537 206.95C292.537 199.05 294.087 191.35 297.187 183.85C300.387 176.35 304.987 169.7 310.987 163.9C316.987 158.1 324.387 153.45 333.187 149.95C341.987 146.45 352.087 144.7 363.487 144.7C376.287 144.7 388.087 146.7 398.887 150.7C409.687 154.7 418.887 160.3 426.487 167.5L416.437 186.55Z" fill="#915EFF"/>
</svg>
