<svg width="351" height="217" viewBox="0 0 351 217" fill="none" xmlns="http://www.w3.org/2000/svg">
<path d="M79.2305 3.39999C101.43 3.39999 120.83 7.79999 137.43 16.6C154.03 25.4 166.83 37.8 175.83 53.8C185.03 69.6 189.63 87.9 189.63 108.7C189.63 129.3 185.03 147.6 175.83 163.6C166.83 179.6 153.93 192 137.13 200.8C120.53 209.6 101.23 214 79.2305 214H0.33047V3.39999H79.2305ZM75.9305 169.6C95.3305 169.6 110.43 164.3 121.23 153.7C132.03 143.1 137.43 128.1 137.43 108.7C137.43 89.3 132.03 74.2 121.23 63.4C110.43 52.6 95.3305 47.2 75.9305 47.2H51.6305V169.6H75.9305ZM273.499 216.1C258.099 216.1 244.299 213.6 232.099 208.6C219.899 203.6 210.099 196.2 202.699 186.4C195.499 176.6 191.699 164.8 191.299 151H245.899C246.699 158.8 249.399 164.8 253.999 169C258.599 173 264.599 175 271.999 175C279.599 175 285.599 173.3 289.999 169.9C294.399 166.3 296.599 161.4 296.599 155.2C296.599 150 294.799 145.7 291.199 142.3C287.799 138.9 283.499 136.1 278.299 133.9C273.299 131.7 266.099 129.2 256.699 126.4C243.099 122.2 231.999 118 223.399 113.8C214.799 109.6 207.399 103.4 201.199 95.2C194.999 87 191.899 76.3 191.899 63.1C191.899 43.5 198.999 28.2 213.199 17.2C227.399 6 245.899 0.399996 268.699 0.399996C291.899 0.399996 310.599 6 324.799 17.2C338.999 28.2 346.599 43.6 347.599 63.4H292.099C291.699 56.6 289.199 51.3 284.599 47.5C279.999 43.5 274.099 41.5 266.899 41.5C260.699 41.5 255.699 43.2 251.899 46.6C248.099 49.8 246.199 54.5 246.199 60.7C246.199 67.5 249.399 72.8 255.799 76.6C262.199 80.4 272.199 84.5 285.799 88.9C299.399 93.5 310.399 97.9 318.799 102.1C327.399 106.3 334.799 112.4 340.999 120.4C347.199 128.4 350.299 138.7 350.299 151.3C350.299 163.3 347.199 174.2 340.999 184C334.999 193.8 326.199 201.6 314.599 207.4C302.999 213.2 289.299 216.1 273.499 216.1Z" fill="#915EFF"/>
</svg>
